<svg width="24" height="24" viewBox="0 0 24 24" fill="none" xmlns="http://www.w3.org/2000/svg">
<path d="M12 8C10.9 8 9.95833 8.39167 9.175 9.175C8.39167 9.95833 8 10.9 8 12C8 12.84 8.23867 13.599 8.716 14.277C9.194 14.955 9.824 15.4433 10.606 15.742C10.7313 15.7987 10.826 15.892 10.89 16.022C10.9527 16.152 10.958 16.28 10.906 16.406C10.8533 16.524 10.771 16.6157 10.659 16.681C10.547 16.7463 10.4323 16.7527 10.315 16.7C9.31633 16.3413 8.51433 15.7343 7.909 14.879C7.30367 14.0237 7.00067 13.064 7 12C7 10.6153 7.48733 9.436 8.462 8.462C9.43667 7.488 10.616 7.00067 12 7C13.0553 7 14.0147 7.303 14.878 7.909C15.7413 8.51433 16.3507 9.314 16.706 10.308C16.7547 10.426 16.744 10.544 16.674 10.662C16.604 10.78 16.51 10.8633 16.392 10.912C16.254 10.964 16.122 10.9573 15.996 10.892C15.8707 10.8267 15.7797 10.725 15.723 10.587C15.4243 9.805 14.936 9.17833 14.258 8.707C13.58 8.23567 12.8273 8 12 8ZM12 4C9.76667 4 7.875 4.775 6.325 6.325C4.775 7.875 4 9.76667 4 12C4 14.228 4.74933 16.1047 6.248 17.63C7.74667 19.1567 9.59533 19.943 11.794 19.989C11.9367 19.9963 12.0577 20.0507 12.157 20.152C12.2563 20.2533 12.304 20.375 12.3 20.517C12.296 20.659 12.2463 20.7803 12.151 20.881C12.0557 20.9817 11.9367 21.0297 11.794 21.025C10.5453 21.0057 9.38733 20.7447 8.32 20.242C7.25333 19.7393 6.32467 19.0757 5.534 18.251C4.74333 17.4263 4.12333 16.4743 3.674 15.395C3.22467 14.3157 3 13.184 3 12C3 10.7573 3.23667 9.58867 3.71 8.494C4.184 7.39933 4.82633 6.447 5.637 5.637C6.447 4.82567 7.39933 4.18333 8.494 3.71C9.58867 3.23667 10.7573 3 12 3C14.3733 3 16.457 3.83733 18.251 5.512C20.045 7.18667 20.9697 9.27433 21.025 11.775C21.033 11.9137 20.989 12.0337 20.893 12.135C20.7977 12.2377 20.679 12.291 20.537 12.295C20.395 12.299 20.269 12.249 20.159 12.145C20.049 12.041 19.9903 11.9177 19.983 11.775C19.925 9.67233 19.1183 7.85067 17.563 6.31C16.007 4.77 14.1527 4 12 4ZM19.242 20.27L14.962 15.975L14.442 17.558C14.372 17.7527 14.2393 17.8493 14.044 17.848C13.8493 17.8453 13.7233 17.7467 13.666 17.552L12.217 12.727C12.1763 12.5697 12.2117 12.435 12.323 12.323C12.435 12.2117 12.5697 12.1763 12.727 12.217L17.552 13.666C17.7467 13.7233 17.845 13.8493 17.847 14.044C17.849 14.2387 17.7523 14.3713 17.557 14.442L15.975 14.962L20.275 19.242C20.4177 19.3847 20.489 19.556 20.489 19.756C20.489 19.956 20.4177 20.127 20.275 20.269C20.1323 20.411 19.9603 20.4823 19.759 20.483C19.5577 20.4837 19.3853 20.4123 19.242 20.269" fill="black"/>
</svg>
